{"title":"13 Ghosts(1960)MPEG-4[DaScubaDude]","uid":14268740,"size":853796881,"categoryP":"video","categoryS":"movies","magnet":"?xt=urn:btih:61716609181911da9c7d4c4155aaa21940a94f2c&amp;dn=13+Ghosts%281960%29MPEG-4%5BDaScubaDude%5D&amp;tr=udp%3A%2F%2Ftracker.leechers-paradise.org%3A6969&amp;tr=udp%3A%2F%2Fzer0day.ch%3A1337&amp;tr=udp%3A%2F%2Fopen.demonii.com%3A1337&amp;tr=udp%3A%2F%2Ftracker.coppersurfer.tk%3A6969&amp;tr=udp%3A%2F%2Fexodus.desync.com%3A6969","seeders":1,"leechers":0,"uploader":"dascuba","files":1,"time":1460283607,"description":"13 Ghosts (1960)\r\nNot Rated | 1h 25min | Horror | July 1960 (USA)\r\nA family inherits what proves to be a haunted house, but a special pair of goggles allows them to see their ghostly tormentors.\r\nDirector: William Castle\r\nWriter: Robb White\r\nStars: Charles Herbert, Jo Morrow, Martin Milner |\r\n\r\nGeneral\r\nComplete name                            : 13 GhostsWILLIAM_CASTLE_FILM_COLLECTION_Title62.mp4\r\nFormat                                   : MPEG-4\r\nFormat profile                           : Base Media\r\nCodec ID                                 : isom\r\nFile size                                : 814 MiB\r\nDuration                                 : 1h 24mn\r\nOverall bit rate                         : 1 348 Kbps\r\nMovie name                               : WILLIAM_CASTLE_FILM_COLLECTION\r\nGenre                                    : Horror\r\nWriting application                      : Lavf54.6.100\r\n\r\nVideo\r\nID                                       : 1\r\nFormat                                   : AVC\r\nFormat/Info                              : Advanced Video Codec\r\nFormat profile                           :   \r\nFormat settings, CABAC                   : No\r\nFormat settings, ReFrames                : 6 frames\r\nFormat settings, GOP                     : M=1, N=60\r\nCodec ID                                 : avc1\r\nCodec ID/Info                            : Advanced Video Coding\r\nDuration                                 : 1h 24mn\r\nBit rate                                 : 1 202 Kbps\r\nWidth                                    : 720 pixels\r\nHeight                                   : 404 pixels\r\nDisplay aspect ratio                     : 16:9\r\nFrame rate mode                          : Constant\r\nFrame rate                               : 29.970 fps\r\nColor space                              : YUV\r\nChroma subsampling                       : 4:2:0\r\nBit depth                                : 8 bits\r\nScan type                                : Progressive\r\nBits/(Pixel*Frame)                       : 0.138\r\nStream size                              : 726 MiB (89%)\r\n\r\nAudio\r\nID                                       : 2\r\nFormat                                   : AAC\r\nFormat/Info                              : Advanced Audio Codec\r\nFormat profile                           : LC\r\nCodec ID                                 : 40\r\nDuration                                 : 1h 24mn\r\nBit rate mode                            : Constant\r\nBit rate                                 : 140 Kbps\r\nChannel(s)                               : 2 channels\r\nChannel positions                        : Front: L R\r\nSampling rate                            : 44.1 KHz\r\nCompression mode                         : Lossy\r\nStream size                              : 84.4 MiB (10%)","torrent":{"xt":"urn:btih:61716609181911da9c7d4c4155aaa21940a94f2c","amp;dn":"13+Ghosts%281960%29MPEG-4%5BDaScubaDude%5D","amp;tr":["udp%3A%2F%2Ftracker.leechers-paradise.org%3A6969","udp%3A%2F%2Fzer0day.ch%3A1337","udp%3A%2F%2Fopen.demonii.com%3A1337","udp%3A%2F%2Ftracker.coppersurfer.tk%3A6969","udp%3A%2F%2Fexodus.desync.com%3A6969"],"infoHash":"61716609181911da9c7d4c4155aaa21940a94f2c","infoHashBuffer":{"type":"Buffer","data":[97,113,102,9,24,25,17,218,156,125,76,65,85,170,162,25,64,169,79,44]},"announce":[],"urlList":[]}}